<svg width="48" height="48" viewBox="0 0 48 48" fill="none" xmlns="http://www.w3.org/2000/svg">
<path d="M40 17.95C40 9.1555 32.8221 2 24 2C15.1779 2 8 9.1555 8 17.95C8 26.0616 14.1057 32.7789 21.977 33.7726V36.65H18.6667C18.1301 36.65 17.6156 36.8625 17.2362 37.2407C16.8568 37.6189 16.6437 38.1318 16.6437 38.6667C16.6437 39.2015 16.8568 39.7145 17.2362 40.0927C17.6156 40.4709 18.1301 40.6833 18.6667 40.6833H21.977V43.9833C21.977 44.5182 22.1901 45.0311 22.5695 45.4093C22.9489 45.7875 23.4635 46 24 46C24.5365 46 25.0511 45.7875 25.4305 45.4093C25.8099 45.0311 26.023 44.5182 26.023 43.9833V40.6833H29.3333C29.8699 40.6833 30.3844 40.4709 30.7638 40.0927C31.1432 39.7145 31.3563 39.2015 31.3563 38.6667C31.3563 38.1318 31.1432 37.6189 30.7638 37.2407C30.3844 36.8625 29.8699 36.65 29.3333 36.65H26.023V33.7726C33.8943 32.7789 40 26.0616 40 17.95ZM12.046 17.95C12.046 11.3793 17.4087 6.03333 24 6.03333C30.5913 6.03333 35.954 11.3793 35.954 17.95C35.954 24.5207 30.5913 29.8667 24 29.8667C17.4087 29.8667 12.046 24.5207 12.046 17.95Z" fill="#F6A7AE"/>
</svg>
