<svg width="60" height="60" viewBox="0 0 60 60" fill="none" xmlns="http://www.w3.org/2000/svg">
<rect width="60" height="60" fill="white"/>
<path d="M55.0713 26.8002L55.0694 26.8054C54.8038 27.5056 54.2695 28.7742 53.2614 30.5112M55.0713 26.8002L52.3965 30.0092M55.0713 26.8002C57.9052 19.2029 54.0377 10.7501 46.4333 7.92439C40.419 5.68688 33.8623 7.64597 29.9926 12.3331M55.0713 26.8002L29.9926 12.3331M53.2614 30.5112L52.3965 30.0092M53.2614 30.5112C53.2616 30.5109 53.2618 30.5105 53.2619 30.5102L52.3965 30.0092M53.2614 30.5112C53.006 30.9523 52.7211 31.4218 52.4072 31.9194L52.4052 31.9227C50.1532 35.4627 46.244 40.41 39.6237 46.1639M52.3965 30.0092C52.1482 30.438 51.8699 30.8969 51.5614 31.3859C49.3647 34.8391 45.5204 39.7141 38.9677 45.4091M39.6237 46.1639L39.624 46.1636L38.9677 45.4091M39.6237 46.1639L38.9677 45.4091M39.6237 46.1639L30.6564 53.9651L30.0004 54.5358L29.344 53.9653L20.369 46.1638M38.9677 45.4091L30.0001 53.2106L21.025 45.4091C15.0441 40.2106 11.3276 35.6967 9.05563 32.3263M20.369 46.1638L21.0107 45.4256L20.3689 46.1638L20.369 46.1638ZM20.369 46.1638C14.3264 40.9118 10.5508 36.3332 8.22698 32.8861M8.22698 32.8861C8.22716 32.8864 8.22734 32.8866 8.22752 32.8869L9.05563 32.3263M8.22698 32.8861C7.88734 32.3843 7.58752 31.9153 7.31489 31.4836L7.30886 31.4741L7.30892 31.474C5.93813 29.2484 5.23879 27.6399 4.92831 26.7987C2.09537 19.2089 5.96333 10.758 13.5507 7.92481L13.5522 7.92424C19.5733 5.68701 26.1239 7.64597 29.9926 12.3331M8.22698 32.8861L29.9926 12.3331M9.05563 32.3263C8.72461 31.8373 8.43121 31.3784 8.16037 30.9496L9.05563 32.3263Z" fill="#FF6464" stroke="white" stroke-width="2"/>
<path d="M4.67417 17.0236L13.9837 22.5665C14.1808 22.6839 14.4324 22.6521 14.5941 22.4894L22.0101 15.0283C22.3927 14.6434 23.0284 15.0581 22.8302 15.5634L17.2102 29.8919C17.0106 30.4007 17.6552 30.815 18.0351 30.4221L25.5815 22.6175C25.9537 22.2325 26.5887 22.6228 26.4134 23.1287L24.353 29.0738C24.1965 29.5254 24.7021 29.9182 25.101 29.6548L26.4451 28.7673C26.6003 28.6648 26.7995 28.657 26.9623 28.7468L38.9277 35.3524" stroke="white" stroke-width="2" stroke-linecap="round"/>
<path d="M39.1962 31L41.0801 36.2631L36.25 37.8971" stroke="white" stroke-width="2" stroke-linecap="round" stroke-linejoin="round"/>
</svg>
