<svg width="60" height="60" viewBox="0 0 60 60" fill="none" xmlns="http://www.w3.org/2000/svg">
<rect width="60" height="60" fill="white"/>
<path d="M43.1778 29.9431L43.1759 29.9483C43.043 30.2987 42.7821 30.9159 42.2969 31.7521C42.2967 31.7524 42.2965 31.7527 42.2963 31.753L41.4314 31.251C41.3158 31.4508 41.1862 31.6645 41.0425 31.8923L43.1778 29.9431ZM43.1778 29.9431C44.6009 26.1278 42.6587 21.8831 38.8403 20.4641C36.0239 19.4163 32.9716 20.201 30.9966 22.2198C29.0223 20.201 25.9724 19.4164 23.1532 20.4639L23.1517 20.4645C19.3423 21.8869 17.3995 26.1298 18.8217 29.9416C18.9794 30.3687 19.321 31.1493 19.9765 32.2135L19.9764 32.2135L19.9825 32.223C20.1104 32.4256 20.2535 32.6495 20.4163 32.8901M43.1778 29.9431L20.4163 32.8901M20.4163 32.8901C21.5263 34.5365 23.3165 36.7036 26.1637 39.1785C26.1637 39.1785 26.1638 39.1785 26.1638 39.1785L30.344 42.8121L31.0003 43.3826L31.6564 42.8118L35.8328 39.1785C35.8329 39.1784 35.833 39.1783 35.8332 39.1782L20.4163 32.8901Z" fill="#FF6464" stroke="white" stroke-width="2"/>
<rect x="30" y="6" width="2" height="8" rx="1" fill="#FF6464"/>
<rect x="32" y="55" width="2" height="8" rx="1" transform="rotate(-180 32 55)" fill="#FF6464"/>
<rect x="47.617" y="12.4688" width="2" height="8" rx="1" transform="rotate(45 47.617 12.4688)" fill="#FF6464"/>
<rect x="14.383" y="48.5312" width="2" height="8" rx="1" transform="rotate(-135 14.383 48.5312)" fill="#FF6464"/>
<rect x="55.5" y="29.5" width="2" height="8" rx="1" transform="rotate(90 55.5 29.5)" fill="#FF6464"/>
<rect x="6.5" y="31.5" width="2" height="8" rx="1" transform="rotate(-90 6.5 31.5)" fill="#FF6464"/>
<rect x="49.0312" y="47.1171" width="2" height="8" rx="1" transform="rotate(135 49.0312 47.1171)" fill="#FF6464"/>
<rect x="12.9688" y="13.8831" width="2" height="8" rx="1" transform="rotate(-45 12.9688 13.8831)" fill="#FF6464"/>
<path d="M31 33.3984C31.6484 33.3984 31.9922 33.0078 32.0156 32.3438L32.1328 26.9375C32.1406 26.8594 32.1406 26.7656 32.1406 26.7031C32.1406 25.9844 31.7031 25.5547 31.0078 25.5547C30.3047 25.5547 29.8594 25.9844 29.8594 26.7031C29.8594 26.7656 29.8672 26.8594 29.8672 26.9375L29.9922 32.3438C30.0078 33.0078 30.3516 33.3984 31 33.3984ZM31 37.1953C31.7109 37.1953 32.2734 36.6562 32.2734 35.9688C32.2734 35.2812 31.7109 34.7422 31 34.7422C30.2891 34.7422 29.7266 35.2812 29.7266 35.9688C29.7266 36.6562 30.2891 37.1953 31 37.1953Z" fill="white"/>
</svg>
