<svg width="60" height="60" viewBox="0 0 60 60" fill="none" xmlns="http://www.w3.org/2000/svg">
    <rect width="60" height="60" fill="white" />
    <path
        d="M55.0713 25.8002L55.0694 25.8054C54.8038 26.5056 54.2695 27.7742 53.2614 29.5112M55.0713 25.8002L52.3965 29.0092M55.0713 25.8002C57.9052 18.2029 54.0377 9.75007 46.4333 6.92439C40.419 4.68688 33.8623 6.64597 29.9926 11.3331M55.0713 25.8002L29.9926 11.3331M53.2614 29.5112L52.3965 29.0092M53.2614 29.5112C53.2616 29.5109 53.2618 29.5105 53.2619 29.5102L52.3965 29.0092M53.2614 29.5112C53.006 29.9523 52.7211 30.4218 52.4072 30.9194L52.4052 30.9227C50.1532 34.4627 46.244 39.41 39.6237 45.1639M52.3965 29.0092C52.1482 29.438 51.8699 29.8969 51.5614 30.3859C49.3647 33.8391 45.5204 38.7141 38.9677 44.4091M39.6237 45.1639L39.624 45.1636L38.9677 44.4091M39.6237 45.1639L38.9677 44.4091M39.6237 45.1639L30.6564 52.9651L30.0004 53.5358L29.344 52.9653L20.369 45.1638M38.9677 44.4091L30.0001 52.2106L21.025 44.4091C15.0441 39.2106 11.3276 34.6967 9.05563 31.3263M20.369 45.1638L21.0107 44.4256L20.3689 45.1638L20.369 45.1638ZM20.369 45.1638C14.3264 39.9118 10.5508 35.3332 8.22698 31.8861M8.22698 31.8861C8.22716 31.8864 8.22734 31.8866 8.22752 31.8869L9.05563 31.3263M8.22698 31.8861C7.88734 31.3843 7.58752 30.9153 7.31489 30.4836L7.30886 30.4741L7.30892 30.474C5.93813 28.2484 5.23879 26.6399 4.92831 25.7987C2.09537 18.2089 5.96333 9.75797 13.5507 6.92481L13.5522 6.92424C19.5733 4.68701 26.1239 6.64597 29.9926 11.3331M8.22698 31.8861L29.9926 11.3331M9.05563 31.3263C8.72461 30.8373 8.43121 30.3784 8.16037 29.9496L9.05563 31.3263Z"
        fill="#FF6464" stroke="white" stroke-width="2" />
    <circle cx="25.5" cy="25.5" r="7.5" stroke="white" stroke-width="2" />
    <rect x="30" y="31.4142" width="2" height="8.36854" rx="1" transform="rotate(-45 30 31.4142)" fill="white" />
    <circle cx="24" cy="21" r="1" fill="white" />
    <path d="M22 23C21.5 23.3333 20.6 24.4 21 26" stroke="white" stroke-width="2" stroke-linecap="round"
        stroke-linejoin="round" />
</svg>
