<svg width="60" height="60" viewBox="0 0 60 60" fill="none" xmlns="http://www.w3.org/2000/svg">
<rect width="60" height="60" fill="white"/>
<path d="M55.0713 25.8002L55.0694 25.8054C54.8038 26.5056 54.2695 27.7742 53.2614 29.5112M55.0713 25.8002L52.3965 29.0092M55.0713 25.8002C57.9052 18.2029 54.0377 9.75007 46.4333 6.92439C40.419 4.68688 33.8623 6.64597 29.9926 11.3331M55.0713 25.8002L29.9926 11.3331M53.2614 29.5112L52.3965 29.0092M53.2614 29.5112C53.2616 29.5109 53.2618 29.5105 53.2619 29.5102L52.3965 29.0092M53.2614 29.5112C53.006 29.9523 52.7211 30.4218 52.4072 30.9194L52.4052 30.9227C50.1532 34.4627 46.244 39.41 39.6237 45.1639M52.3965 29.0092C52.1482 29.438 51.8699 29.8969 51.5614 30.3859C49.3647 33.8391 45.5204 38.7141 38.9677 44.4091M39.6237 45.1639L39.624 45.1636L38.9677 44.4091M39.6237 45.1639L38.9677 44.4091M39.6237 45.1639L30.6564 52.9651L30.0004 53.5358L29.344 52.9653L20.369 45.1638M38.9677 44.4091L30.0001 52.2106L21.025 44.4091C15.0441 39.2106 11.3276 34.6967 9.05563 31.3263M20.369 45.1638L21.0107 44.4256L20.3689 45.1638L20.369 45.1638ZM20.369 45.1638C14.3264 39.9118 10.5508 35.3332 8.22698 31.8861M8.22698 31.8861C8.22716 31.8864 8.22734 31.8866 8.22752 31.8869L9.05563 31.3263M8.22698 31.8861C7.88734 31.3843 7.58752 30.9153 7.31489 30.4836L7.30886 30.4741L7.30892 30.474C5.93813 28.2484 5.23879 26.6399 4.92831 25.7987C2.09537 18.2089 5.96333 9.75797 13.5507 6.92481L13.5522 6.92424C19.5733 4.68701 26.1239 6.64597 29.9926 11.3331M8.22698 31.8861L29.9926 11.3331M9.05563 31.3263C8.72461 30.8373 8.43121 30.3784 8.16037 29.9496L9.05563 31.3263Z" fill="#FF6464" stroke="white" stroke-width="2"/>
<path d="M6 26.9811H29.9657C30.1735 26.9811 30.3596 26.8526 30.4333 26.6583L33.1151 19.5811C33.2916 19.1154 33.9662 19.1659 34.0714 19.6527L36.3698 30.2892C36.476 30.7807 37.1598 30.8255 37.3293 30.352L39.988 22.9232C40.1526 22.4633 40.8112 22.488 40.9408 22.959L42.1334 27.2909C42.2451 27.6965 42.7772 27.7913 43.0221 27.4492L43.7748 26.3977C43.8687 26.2665 44.0201 26.1887 44.1814 26.1887H54.5" stroke="white" stroke-width="2" stroke-linecap="round"/>
<circle cx="42.5" cy="44.5" r="9.5" fill="#FF6464" stroke="white" stroke-width="2"/>
<path d="M42.5 40.5859C43.1875 40.5859 43.7188 40.0625 43.7188 39.4062C43.7188 38.7422 43.1875 38.2266 42.5 38.2266C41.8125 38.2266 41.2812 38.7422 41.2812 39.4062C41.2812 40.0625 41.8125 40.5859 42.5 40.5859ZM42.5 50.1641C43.2031 50.1641 43.6406 49.7188 43.6406 48.9766V42.6484C43.6406 41.9062 43.2031 41.4531 42.5 41.4531C41.7891 41.4531 41.3594 41.9062 41.3594 42.6484V48.9766C41.3594 49.7188 41.7891 50.1641 42.5 50.1641Z" fill="white"/>
</svg>
