<svg width="48" height="48" viewBox="0 0 48 48" fill="none" xmlns="http://www.w3.org/2000/svg">
<path d="M39.9375 1.5H33C32.453 1.5 31.9284 1.7173 31.5416 2.10409C31.1548 2.49089 30.9375 3.01549 30.9375 3.5625C30.9375 4.10951 31.1548 4.63411 31.5416 5.02091C31.9284 5.4077 32.453 5.625 33 5.625H34.9584L31.4803 9.10219C30.0921 7.48182 28.3695 6.18119 26.4309 5.28967C24.4923 4.39815 22.3837 3.93686 20.25 3.9375C12.0825 3.9375 5.4375 10.5825 5.4375 18.75C5.4375 26.2181 10.9931 32.4112 18.1875 33.4181V36.9375H15.5625C15.0155 36.9375 14.4909 37.1548 14.1041 37.5416C13.7173 37.9284 13.5 38.453 13.5 39C13.5 39.547 13.7173 40.0716 14.1041 40.4584C14.4909 40.8452 15.0155 41.0625 15.5625 41.0625H18.1875V44.4375C18.1875 44.9845 18.4048 45.5091 18.7916 45.8959C19.1784 46.2827 19.703 46.5 20.25 46.5C20.797 46.5 21.3216 46.2827 21.7084 45.8959C22.0952 45.5091 22.3125 44.9845 22.3125 44.4375V41.0625H24.9375C25.4845 41.0625 26.0091 40.8452 26.3959 40.4584C26.7827 40.0716 27 39.547 27 39C27 38.453 26.7827 37.9284 26.3959 37.5416C26.0091 37.1548 25.4845 36.9375 24.9375 36.9375H22.3125V33.4181C29.5069 32.4112 35.0625 26.2181 35.0625 18.75C35.0636 16.6509 34.6161 14.5758 33.75 12.6637L37.875 8.53875V10.5C37.875 11.047 38.0923 11.5716 38.4791 11.9584C38.8659 12.3452 39.3905 12.5625 39.9375 12.5625C40.4845 12.5625 41.0091 12.3452 41.3959 11.9584C41.7827 11.5716 42 11.047 42 10.5V3.5625C42 3.01549 41.7827 2.49089 41.3959 2.10409C41.0091 1.7173 40.4845 1.5 39.9375 1.5ZM20.25 29.4375C18.1362 29.4375 16.0699 28.8107 14.3123 27.6363C12.5548 26.462 11.1849 24.7928 10.376 22.8399C9.56713 20.887 9.35548 18.7381 9.76786 16.665C10.1802 14.5918 11.1981 12.6875 12.6928 11.1928C14.1875 9.69812 16.0918 8.68024 18.165 8.26786C20.2381 7.85548 22.387 8.06713 24.3399 8.87604C26.2928 9.68495 27.962 11.0548 29.1363 12.8123C30.3107 14.5699 30.9375 16.6362 30.9375 18.75C30.9343 21.5835 29.8072 24.3 27.8036 26.3036C25.8 28.3072 23.0835 29.4343 20.25 29.4375Z" fill="#B9A0DB"/>
</svg>
