<svg width="48" height="48" viewBox="0 0 48 48" fill="none" xmlns="http://www.w3.org/2000/svg">
<g clip-path="url(#clip0_94_426)">
<path fill-rule="evenodd" clip-rule="evenodd" d="M41.9999 18C41.9999 18.5304 41.7892 19.0391 41.4142 19.4142C41.0391 19.7893 40.5304 20 39.9999 20C39.4695 20 38.9608 19.7893 38.5857 19.4142C38.2106 19.0391 37.9999 18.5304 37.9999 18V12.828L30.9259 19.902C33.2336 22.927 34.3056 26.716 33.9246 30.5017C33.5437 34.2873 31.7384 37.7868 28.8743 40.2914C26.0102 42.7961 22.3013 44.1187 18.4987 43.9915C14.696 43.8644 11.0838 42.2969 8.39341 39.6065C5.70302 36.9161 4.13555 33.3039 4.00839 29.5013C3.88123 25.6986 5.20388 21.9897 7.70852 19.1256C10.2132 16.2615 13.7126 14.4562 17.4983 14.0753C21.2839 13.6944 25.0729 14.7663 28.0979 17.074L35.1719 10H29.9999C29.4695 10 28.9608 9.78929 28.5857 9.41421C28.2106 9.03914 27.9999 8.53043 27.9999 8C27.9999 7.46957 28.2106 6.96086 28.5857 6.58579C28.9608 6.21071 29.4695 6 29.9999 6H39.4999C40.8799 6 41.9999 7.12 41.9999 8.5V18ZM18.9999 18C16.0826 18 13.2847 19.1589 11.2218 21.2218C9.15886 23.2847 7.99993 26.0826 7.99993 29C7.99993 31.9174 9.15886 34.7153 11.2218 36.7782C13.2847 38.8411 16.0826 40 18.9999 40C21.9173 40 24.7152 38.8411 26.7781 36.7782C28.841 34.7153 29.9999 31.9174 29.9999 29C29.9999 26.0826 28.841 23.2847 26.7781 21.2218C24.7152 19.1589 21.9173 18 18.9999 18Z" fill="#9DC6FB"/>
</g>
<defs>
<clipPath id="clip0_94_426">
<rect width="48" height="48" fill="white"/>
</clipPath>
</defs>
</svg>
