<svg width="20" height="20" viewBox="0 0 20 20" fill="none" xmlns="http://www.w3.org/2000/svg">
<path d="M17.5 5.60839C17.4833 5.60839 17.4583 5.60839 17.4333 5.60839C13.025 5.16673 8.62499 5.00006 4.26666 5.44173L2.56666 5.60839C2.21666 5.64173 1.90832 5.39173 1.87499 5.04173C1.84166 4.69173 2.09166 4.39173 2.43332 4.35839L4.13332 4.19173C8.56666 3.74173 13.0583 3.91673 17.5583 4.35839C17.9 4.39173 18.15 4.70006 18.1167 5.04173C18.0917 5.36673 17.8167 5.60839 17.5 5.60839Z" fill="#65636D"/>
<path d="M7.08332 4.7665C7.04999 4.7665 7.01665 4.7665 6.97499 4.75817C6.64165 4.69984 6.40832 4.37484 6.46665 4.0415L6.64999 2.94984C6.78332 2.14984 6.96665 1.0415 8.90832 1.0415H11.0917C13.0417 1.0415 13.225 2.1915 13.35 2.95817L13.5333 4.0415C13.5917 4.38317 13.3583 4.70817 13.025 4.75817C12.6833 4.8165 12.3583 4.58317 12.3083 4.24984L12.125 3.1665C12.0083 2.4415 11.9833 2.29984 11.1 2.29984H8.91665C8.03332 2.29984 8.01665 2.4165 7.89165 3.15817L7.69999 4.2415C7.64999 4.54984 7.38332 4.7665 7.08332 4.7665Z" fill="#65636D"/>
<path d="M12.675 18.9582H7.325C4.41666 18.9582 4.3 17.3498 4.20833 16.0498L3.66666 7.65815C3.64166 7.31649 3.90833 7.01649 4.25 6.99149C4.6 6.97482 4.89166 7.23315 4.91666 7.57482L5.45833 15.9665C5.55 17.2332 5.58333 17.7082 7.325 17.7082H12.675C14.425 17.7082 14.4583 17.2332 14.5417 15.9665L15.0833 7.57482C15.1083 7.23315 15.4083 6.97482 15.75 6.99149C16.0917 7.01649 16.3583 7.30815 16.3333 7.65815L15.7917 16.0498C15.7 17.3498 15.5833 18.9582 12.675 18.9582Z" fill="#65636D"/>
<path d="M11.3833 14.375H8.60834C8.26667 14.375 7.98334 14.0917 7.98334 13.75C7.98334 13.4083 8.26667 13.125 8.60834 13.125H11.3833C11.725 13.125 12.0083 13.4083 12.0083 13.75C12.0083 14.0917 11.725 14.375 11.3833 14.375Z" fill="#65636D"/>
<path d="M12.0834 11.0415H7.91669C7.57502 11.0415 7.29169 10.7582 7.29169 10.4165C7.29169 10.0748 7.57502 9.7915 7.91669 9.7915H12.0834C12.425 9.7915 12.7084 10.0748 12.7084 10.4165C12.7084 10.7582 12.425 11.0415 12.0834 11.0415Z" fill="#65636D"/>
</svg>
